<?xml version="1.0" encoding="utf-8"?><svg width="auto" height="7020" style="overflow:visible " version="1.1" xmlns="http://www.w3.org/2000/svg"><rect x="20" y="20" width="200" height="40" style="fill:white;stroke:black;stroke-width:1" /><text x="30" y="30" font-size="10" style="fill:blue">xs:schema</text><text x="30" y="40" font-size="8" style="fill:black">xmlns: http://www.uniovi.es</text><text x="30" y="50" font-size="8" style="fill:black">elementFormDefault: qualified</text><text x="30" y="60" font-size="8" style="fill:black">targetNamespace: http://www.uniovi.es</text><text x="30" y="70" font-size="8" style="fill:black">xmlns:xs: http://www.w3.org/2001/XMLSchema</text><rect x="240" y="20" width="200" height="40" style="fill:white;stroke:black;stroke-width:1" /><text x="250" y="30" font-size="10" style="fill:blue">xs:element</text><path d="M220 40 C240 40 220 40 240 40" style="fill:transparent;stroke:black" /><text x="250" y="40" font-size="8" style="fill:black">name: circuito</text><rect x="460" y="20" width="200" height="40" style="fill:white;stroke:black;stroke-width:1" /><text x="470" y="30" font-size="10" style="fill:blue">xs:complexType</text><path d="M440 40 C460 40 440 40 460 40" style="fill:transparent;stroke:black" /><rect x="680" y="20" width="200" height="40" style="fill:white;stroke:black;stroke-width:1" /><text x="690" y="30" font-size="10" style="fill:blue">xs:all</text><path d="M660 40 C680 40 660 40 680 40" style="fill:transparent;stroke:black" /><rect x="900" y="20" width="200" height="40" style="fill:white;stroke:black;stroke-width:1" /><text x="910" y="30" font-size="10" style="fill:blue">xs:element</text><path d="M880 40 C900 40 880 40 900 40" style="fill:transparent;stroke:black" /><text x="910" y="40" font-size="8" style="fill:black">ref: nombre</text><rect x="900" y="70" width="200" height="40" style="fill:white;stroke:black;stroke-width:1" /><text x="910" y="80" font-size="10" style="fill:blue">xs:element</text><path d="M880 40 C900 40 880 90 900 90" style="fill:transparent;stroke:black" /><text x="910" y="90" font-size="8" style="fill:black">ref: longitud-circuito</text><rect x="900" y="120" width="200" height="40" style="fill:white;stroke:black;stroke-width:1" /><text x="910" y="130" font-size="10" style="fill:blue">xs:element</text><path d="M880 40 C900 40 880 140 900 140" style="fill:transparent;stroke:black" /><text x="910" y="140" font-size="8" style="fill:black">ref: localidad</text><rect x="900" y="170" width="200" height="40" style="fill:white;stroke:black;stroke-width:1" /><text x="910" y="180" font-size="10" style="fill:blue">xs:element</text><path d="M880 40 C900 40 880 190 900 190" style="fill:transparent;stroke:black" /><text x="910" y="190" font-size="8" style="fill:black">ref: pais</text><rect x="900" y="220" width="200" height="40" style="fill:white;stroke:black;stroke-width:1" /><text x="910" y="230" font-size="10" style="fill:blue">xs:element</text><path d="M880 40 C900 40 880 240 900 240" style="fill:transparent;stroke:black" /><text x="910" y="240" font-size="8" style="fill:black">ref: anchura-media</text><rect x="900" y="270" width="200" height="40" style="fill:white;stroke:black;stroke-width:1" /><text x="910" y="280" font-size="10" style="fill:blue">xs:element</text><path d="M880 40 C900 40 880 290 900 290" style="fill:transparent;stroke:black" /><text x="910" y="290" font-size="8" style="fill:black">ref: fecha</text><rect x="900" y="320" width="200" height="40" style="fill:white;stroke:black;stroke-width:1" /><text x="910" y="330" font-size="10" style="fill:blue">xs:element</text><path d="M880 40 C900 40 880 340 900 340" style="fill:transparent;stroke:black" /><text x="910" y="340" font-size="8" style="fill:black">ref: hora</text><rect x="900" y="370" width="200" height="40" style="fill:white;stroke:black;stroke-width:1" /><text x="910" y="380" font-size="10" style="fill:blue">xs:element</text><path d="M880 40 C900 40 880 390 900 390" style="fill:transparent;stroke:black" /><text x="910" y="390" font-size="8" style="fill:black">ref: vueltas</text><rect x="900" y="420" width="200" height="40" style="fill:white;stroke:black;stroke-width:1" /><text x="910" y="430" font-size="10" style="fill:blue">xs:element</text><path d="M880 40 C900 40 880 440 900 440" style="fill:transparent;stroke:black" /><text x="910" y="440" font-size="8" style="fill:black">ref: patrocinador</text><rect x="900" y="470" width="200" height="40" style="fill:white;stroke:black;stroke-width:1" /><text x="910" y="480" font-size="10" style="fill:blue">xs:element</text><path d="M880 40 C900 40 880 490 900 490" style="fill:transparent;stroke:black" /><text x="910" y="490" font-size="8" style="fill:black">ref: referencias</text><rect x="900" y="520" width="200" height="40" style="fill:white;stroke:black;stroke-width:1" /><text x="910" y="530" font-size="10" style="fill:blue">xs:element</text><path d="M880 40 C900 40 880 540 900 540" style="fill:transparent;stroke:black" /><text x="910" y="540" font-size="8" style="fill:black">ref: fotografias</text><rect x="900" y="570" width="200" height="40" style="fill:white;stroke:black;stroke-width:1" /><text x="910" y="580" font-size="10" style="fill:blue">xs:element</text><path d="M880 40 C900 40 880 590 900 590" style="fill:transparent;stroke:black" /><text x="910" y="590" font-size="8" style="fill:black">ref: videos</text><rect x="900" y="620" width="200" height="40" style="fill:white;stroke:black;stroke-width:1" /><text x="910" y="630" font-size="10" style="fill:blue">xs:element</text><path d="M880 40 C900 40 880 640 900 640" style="fill:transparent;stroke:black" /><text x="910" y="640" font-size="8" style="fill:black">ref: origen</text><rect x="900" y="670" width="200" height="40" style="fill:white;stroke:black;stroke-width:1" /><text x="910" y="680" font-size="10" style="fill:blue">xs:element</text><path d="M880 40 C900 40 880 690 900 690" style="fill:transparent;stroke:black" /><text x="910" y="690" font-size="8" style="fill:black">ref: tramos</text><rect x="900" y="720" width="200" height="40" style="fill:white;stroke:black;stroke-width:1" /><text x="910" y="730" font-size="10" style="fill:blue">xs:element</text><path d="M880 40 C900 40 880 740 900 740" style="fill:transparent;stroke:black" /><text x="910" y="740" font-size="8" style="fill:black">ref: vencedor</text><rect x="900" y="770" width="200" height="40" style="fill:white;stroke:black;stroke-width:1" /><text x="910" y="780" font-size="10" style="fill:blue">xs:element</text><path d="M880 40 C900 40 880 790 900 790" style="fill:transparent;stroke:black" /><text x="910" y="790" font-size="8" style="fill:black">ref: clasificados</text><rect x="240" y="970" width="200" height="40" style="fill:white;stroke:black;stroke-width:1" /><text x="250" y="980" font-size="10" style="fill:blue">xs:element</text><path d="M220 40 C240 40 220 990 240 990" style="fill:transparent;stroke:black" /><text x="250" y="990" font-size="8" style="fill:black">name: nombre</text><text x="250" y="1000" font-size="8" style="fill:black">type: xs:string</text><rect x="240" y="1020" width="200" height="40" style="fill:white;stroke:black;stroke-width:1" /><text x="250" y="1030" font-size="10" style="fill:blue">xs:element</text><path d="M220 40 C240 40 220 1040 240 1040" style="fill:transparent;stroke:black" /><text x="250" y="1040" font-size="8" style="fill:black">name: longitud-circuito</text><rect x="460" y="1020" width="200" height="40" style="fill:white;stroke:black;stroke-width:1" /><text x="470" y="1030" font-size="10" style="fill:blue">xs:complexType</text><path d="M440 1040 C460 1040 440 1040 460 1040" style="fill:transparent;stroke:black" /><rect x="680" y="1020" width="200" height="40" style="fill:white;stroke:black;stroke-width:1" /><text x="690" y="1030" font-size="10" style="fill:blue">xs:simpleContent</text><path d="M660 1040 C680 1040 660 1040 680 1040" style="fill:transparent;stroke:black" /><rect x="900" y="1020" width="200" height="40" style="fill:white;stroke:black;stroke-width:1" /><text x="910" y="1030" font-size="10" style="fill:blue">xs:extension</text><path d="M880 1040 C900 1040 880 1040 900 1040" style="fill:transparent;stroke:black" /><text x="910" y="1040" font-size="8" style="fill:black">base: xs:positiveInteger</text><rect x="1120" y="1020" width="200" height="40" style="fill:white;stroke:black;stroke-width:1" /><text x="1130" y="1030" font-size="10" style="fill:blue">xs:attribute</text><path d="M1100 1040 C1120 1040 1100 1040 1120 1040" style="fill:transparent;stroke:black" /><text x="1130" y="1040" font-size="8" style="fill:black">name: unidades</text><text x="1130" y="1050" font-size="8" style="fill:black">type: xs:string</text><text x="1130" y="1060" font-size="8" style="fill:black">use: required</text><rect x="240" y="1270" width="200" height="40" style="fill:white;stroke:black;stroke-width:1" /><text x="250" y="1280" font-size="10" style="fill:blue">xs:element</text><path d="M220 40 C240 40 220 1290 240 1290" style="fill:transparent;stroke:black" /><text x="250" y="1290" font-size="8" style="fill:black">name: tiempo-victoria</text><text x="250" y="1300" font-size="8" style="fill:black">type: xs:duration</text><rect x="240" y="1320" width="200" height="40" style="fill:white;stroke:black;stroke-width:1" /><text x="250" y="1330" font-size="10" style="fill:blue">xs:element</text><path d="M220 40 C240 40 220 1340 240 1340" style="fill:transparent;stroke:black" /><text x="250" y="1340" font-size="8" style="fill:black">name: anchura-media</text><rect x="460" y="1320" width="200" height="40" style="fill:white;stroke:black;stroke-width:1" /><text x="470" y="1330" font-size="10" style="fill:blue">xs:complexType</text><path d="M440 1340 C460 1340 440 1340 460 1340" style="fill:transparent;stroke:black" /><rect x="680" y="1320" width="200" height="40" style="fill:white;stroke:black;stroke-width:1" /><text x="690" y="1330" font-size="10" style="fill:blue">xs:simpleContent</text><path d="M660 1340 C680 1340 660 1340 680 1340" style="fill:transparent;stroke:black" /><rect x="900" y="1320" width="200" height="40" style="fill:white;stroke:black;stroke-width:1" /><text x="910" y="1330" font-size="10" style="fill:blue">xs:extension</text><path d="M880 1340 C900 1340 880 1340 900 1340" style="fill:transparent;stroke:black" /><text x="910" y="1340" font-size="8" style="fill:black">base: xs:positiveInteger</text><rect x="1120" y="1320" width="200" height="40" style="fill:white;stroke:black;stroke-width:1" /><text x="1130" y="1330" font-size="10" style="fill:blue">xs:attribute</text><path d="M1100 1340 C1120 1340 1100 1340 1120 1340" style="fill:transparent;stroke:black" /><text x="1130" y="1340" font-size="8" style="fill:black">name: unidades</text><text x="1130" y="1350" font-size="8" style="fill:black">type: xs:string</text><text x="1130" y="1360" font-size="8" style="fill:black">use: required</text><rect x="240" y="1570" width="200" height="40" style="fill:white;stroke:black;stroke-width:1" /><text x="250" y="1580" font-size="10" style="fill:blue">xs:element</text><path d="M220 40 C240 40 220 1590 240 1590" style="fill:transparent;stroke:black" /><text x="250" y="1590" font-size="8" style="fill:black">name: fecha</text><text x="250" y="1600" font-size="8" style="fill:black">type: xs:date</text><rect x="240" y="1620" width="200" height="40" style="fill:white;stroke:black;stroke-width:1" /><text x="250" y="1630" font-size="10" style="fill:blue">xs:element</text><path d="M220 40 C240 40 220 1640 240 1640" style="fill:transparent;stroke:black" /><text x="250" y="1640" font-size="8" style="fill:black">name: hora</text><text x="250" y="1650" font-size="8" style="fill:black">type: xs:time</text><rect x="240" y="1670" width="200" height="40" style="fill:white;stroke:black;stroke-width:1" /><text x="250" y="1680" font-size="10" style="fill:blue">xs:element</text><path d="M220 40 C240 40 220 1690 240 1690" style="fill:transparent;stroke:black" /><text x="250" y="1690" font-size="8" style="fill:black">name: vueltas</text><text x="250" y="1700" font-size="8" style="fill:black">type: xs:positiveInteger</text><rect x="240" y="1720" width="200" height="40" style="fill:white;stroke:black;stroke-width:1" /><text x="250" y="1730" font-size="10" style="fill:blue">xs:element</text><path d="M220 40 C240 40 220 1740 240 1740" style="fill:transparent;stroke:black" /><text x="250" y="1740" font-size="8" style="fill:black">name: localidad</text><text x="250" y="1750" font-size="8" style="fill:black">type: xs:string</text><rect x="240" y="1770" width="200" height="40" style="fill:white;stroke:black;stroke-width:1" /><text x="250" y="1780" font-size="10" style="fill:blue">xs:element</text><path d="M220 40 C240 40 220 1790 240 1790" style="fill:transparent;stroke:black" /><text x="250" y="1790" font-size="8" style="fill:black">name: pais</text><text x="250" y="1800" font-size="8" style="fill:black">type: xs:string</text><rect x="240" y="1820" width="200" height="40" style="fill:white;stroke:black;stroke-width:1" /><text x="250" y="1830" font-size="10" style="fill:blue">xs:element</text><path d="M220 40 C240 40 220 1840 240 1840" style="fill:transparent;stroke:black" /><text x="250" y="1840" font-size="8" style="fill:black">name: patrocinador</text><text x="250" y="1850" font-size="8" style="fill:black">type: xs:string</text><rect x="240" y="1870" width="200" height="40" style="fill:white;stroke:black;stroke-width:1" /><text x="250" y="1880" font-size="10" style="fill:blue">xs:element</text><path d="M220 40 C240 40 220 1890 240 1890" style="fill:transparent;stroke:black" /><text x="250" y="1890" font-size="8" style="fill:black">name: referencias</text><rect x="460" y="1870" width="200" height="40" style="fill:white;stroke:black;stroke-width:1" /><text x="470" y="1880" font-size="10" style="fill:blue">xs:complexType</text><path d="M440 1890 C460 1890 440 1890 460 1890" style="fill:transparent;stroke:black" /><rect x="680" y="1870" width="200" height="40" style="fill:white;stroke:black;stroke-width:1" /><text x="690" y="1880" font-size="10" style="fill:blue">xs:sequence</text><path d="M660 1890 C680 1890 660 1890 680 1890" style="fill:transparent;stroke:black" /><rect x="900" y="1870" width="200" height="40" style="fill:white;stroke:black;stroke-width:1" /><text x="910" y="1880" font-size="10" style="fill:blue">xs:element</text><path d="M880 1890 C900 1890 880 1890 900 1890" style="fill:transparent;stroke:black" /><text x="910" y="1890" font-size="8" style="fill:black">minOccurs: 3</text><text x="910" y="1900" font-size="8" style="fill:black">maxOccurs: unbounded</text><text x="910" y="1910" font-size="8" style="fill:black">ref: referencia</text><rect x="240" y="2070" width="200" height="40" style="fill:white;stroke:black;stroke-width:1" /><text x="250" y="2080" font-size="10" style="fill:blue">xs:element</text><path d="M220 40 C240 40 220 2090 240 2090" style="fill:transparent;stroke:black" /><text x="250" y="2090" font-size="8" style="fill:black">name: referencia</text><rect x="460" y="2070" width="200" height="40" style="fill:white;stroke:black;stroke-width:1" /><text x="470" y="2080" font-size="10" style="fill:blue">xs:complexType</text><path d="M440 2090 C460 2090 440 2090 460 2090" style="fill:transparent;stroke:black" /><rect x="680" y="2070" width="200" height="40" style="fill:white;stroke:black;stroke-width:1" /><text x="690" y="2080" font-size="10" style="fill:blue">xs:simpleContent</text><path d="M660 2090 C680 2090 660 2090 680 2090" style="fill:transparent;stroke:black" /><rect x="900" y="2070" width="200" height="40" style="fill:white;stroke:black;stroke-width:1" /><text x="910" y="2080" font-size="10" style="fill:blue">xs:extension</text><path d="M880 2090 C900 2090 880 2090 900 2090" style="fill:transparent;stroke:black" /><text x="910" y="2090" font-size="8" style="fill:black">base: xs:string</text><rect x="1120" y="2070" width="200" height="40" style="fill:white;stroke:black;stroke-width:1" /><text x="1130" y="2080" font-size="10" style="fill:blue">xs:attribute</text><path d="M1100 2090 C1120 2090 1100 2090 1120 2090" style="fill:transparent;stroke:black" /><text x="1130" y="2090" font-size="8" style="fill:black">name: titulo</text><text x="1130" y="2100" font-size="8" style="fill:black">type: xs:string</text><text x="1130" y="2110" font-size="8" style="fill:black">use: optional</text><rect x="240" y="2320" width="200" height="40" style="fill:white;stroke:black;stroke-width:1" /><text x="250" y="2330" font-size="10" style="fill:blue">xs:element</text><path d="M220 40 C240 40 220 2340 240 2340" style="fill:transparent;stroke:black" /><text x="250" y="2340" font-size="8" style="fill:black">name: fotografias</text><rect x="460" y="2320" width="200" height="40" style="fill:white;stroke:black;stroke-width:1" /><text x="470" y="2330" font-size="10" style="fill:blue">xs:complexType</text><path d="M440 2340 C460 2340 440 2340 460 2340" style="fill:transparent;stroke:black" /><rect x="680" y="2320" width="200" height="40" style="fill:white;stroke:black;stroke-width:1" /><text x="690" y="2330" font-size="10" style="fill:blue">xs:sequence</text><path d="M660 2340 C680 2340 660 2340 680 2340" style="fill:transparent;stroke:black" /><rect x="900" y="2320" width="200" height="40" style="fill:white;stroke:black;stroke-width:1" /><text x="910" y="2330" font-size="10" style="fill:blue">xs:element</text><path d="M880 2340 C900 2340 880 2340 900 2340" style="fill:transparent;stroke:black" /><text x="910" y="2340" font-size="8" style="fill:black">minOccurs: 1</text><text x="910" y="2350" font-size="8" style="fill:black">maxOccurs: 5</text><text x="910" y="2360" font-size="8" style="fill:black">ref: fotografia</text><rect x="240" y="2520" width="200" height="40" style="fill:white;stroke:black;stroke-width:1" /><text x="250" y="2530" font-size="10" style="fill:blue">xs:element</text><path d="M220 40 C240 40 220 2540 240 2540" style="fill:transparent;stroke:black" /><text x="250" y="2540" font-size="8" style="fill:black">name: fotografia</text><rect x="460" y="2520" width="200" height="40" style="fill:white;stroke:black;stroke-width:1" /><text x="470" y="2530" font-size="10" style="fill:blue">xs:complexType</text><path d="M440 2540 C460 2540 440 2540 460 2540" style="fill:transparent;stroke:black" /><rect x="680" y="2520" width="200" height="40" style="fill:white;stroke:black;stroke-width:1" /><text x="690" y="2530" font-size="10" style="fill:blue">xs:simpleContent</text><path d="M660 2540 C680 2540 660 2540 680 2540" style="fill:transparent;stroke:black" /><rect x="900" y="2520" width="200" height="40" style="fill:white;stroke:black;stroke-width:1" /><text x="910" y="2530" font-size="10" style="fill:blue">xs:extension</text><path d="M880 2540 C900 2540 880 2540 900 2540" style="fill:transparent;stroke:black" /><text x="910" y="2540" font-size="8" style="fill:black">base: xs:string</text><rect x="1120" y="2520" width="200" height="40" style="fill:white;stroke:black;stroke-width:1" /><text x="1130" y="2530" font-size="10" style="fill:blue">xs:attribute</text><path d="M1100 2540 C1120 2540 1100 2540 1120 2540" style="fill:transparent;stroke:black" /><text x="1130" y="2540" font-size="8" style="fill:black">name: descripcion</text><text x="1130" y="2550" font-size="8" style="fill:black">type: xs:string</text><text x="1130" y="2560" font-size="8" style="fill:black">use: optional</text><rect x="240" y="2770" width="200" height="40" style="fill:white;stroke:black;stroke-width:1" /><text x="250" y="2780" font-size="10" style="fill:blue">xs:element</text><path d="M220 40 C240 40 220 2790 240 2790" style="fill:transparent;stroke:black" /><text x="250" y="2790" font-size="8" style="fill:black">name: videos</text><rect x="460" y="2770" width="200" height="40" style="fill:white;stroke:black;stroke-width:1" /><text x="470" y="2780" font-size="10" style="fill:blue">xs:complexType</text><path d="M440 2790 C460 2790 440 2790 460 2790" style="fill:transparent;stroke:black" /><rect x="680" y="2770" width="200" height="40" style="fill:white;stroke:black;stroke-width:1" /><text x="690" y="2780" font-size="10" style="fill:blue">xs:sequence</text><path d="M660 2790 C680 2790 660 2790 680 2790" style="fill:transparent;stroke:black" /><rect x="900" y="2770" width="200" height="40" style="fill:white;stroke:black;stroke-width:1" /><text x="910" y="2780" font-size="10" style="fill:blue">xs:element</text><path d="M880 2790 C900 2790 880 2790 900 2790" style="fill:transparent;stroke:black" /><text x="910" y="2790" font-size="8" style="fill:black">minOccurs: 1</text><text x="910" y="2800" font-size="8" style="fill:black">maxOccurs: 3</text><text x="910" y="2810" font-size="8" style="fill:black">ref: video</text><rect x="240" y="2970" width="200" height="40" style="fill:white;stroke:black;stroke-width:1" /><text x="250" y="2980" font-size="10" style="fill:blue">xs:element</text><path d="M220 40 C240 40 220 2990 240 2990" style="fill:transparent;stroke:black" /><text x="250" y="2990" font-size="8" style="fill:black">name: video</text><rect x="460" y="2970" width="200" height="40" style="fill:white;stroke:black;stroke-width:1" /><text x="470" y="2980" font-size="10" style="fill:blue">xs:complexType</text><path d="M440 2990 C460 2990 440 2990 460 2990" style="fill:transparent;stroke:black" /><rect x="680" y="2970" width="200" height="40" style="fill:white;stroke:black;stroke-width:1" /><text x="690" y="2980" font-size="10" style="fill:blue">xs:simpleContent</text><path d="M660 2990 C680 2990 660 2990 680 2990" style="fill:transparent;stroke:black" /><rect x="900" y="2970" width="200" height="40" style="fill:white;stroke:black;stroke-width:1" /><text x="910" y="2980" font-size="10" style="fill:blue">xs:extension</text><path d="M880 2990 C900 2990 880 2990 900 2990" style="fill:transparent;stroke:black" /><text x="910" y="2990" font-size="8" style="fill:black">base: xs:string</text><rect x="1120" y="2970" width="200" height="40" style="fill:white;stroke:black;stroke-width:1" /><text x="1130" y="2980" font-size="10" style="fill:blue">xs:attribute</text><path d="M1100 2990 C1120 2990 1100 2990 1120 2990" style="fill:transparent;stroke:black" /><text x="1130" y="2990" font-size="8" style="fill:black">name: descripcion</text><text x="1130" y="3000" font-size="8" style="fill:black">type: xs:string</text><text x="1130" y="3010" font-size="8" style="fill:black">use: optional</text><rect x="240" y="3220" width="200" height="40" style="fill:white;stroke:black;stroke-width:1" /><text x="250" y="3230" font-size="10" style="fill:blue">xs:element</text><path d="M220 40 C240 40 220 3240 240 3240" style="fill:transparent;stroke:black" /><text x="250" y="3240" font-size="8" style="fill:black">name: origen</text><rect x="460" y="3220" width="200" height="40" style="fill:white;stroke:black;stroke-width:1" /><text x="470" y="3230" font-size="10" style="fill:blue">xs:complexType</text><path d="M440 3240 C460 3240 440 3240 460 3240" style="fill:transparent;stroke:black" /><rect x="680" y="3220" width="200" height="40" style="fill:white;stroke:black;stroke-width:1" /><text x="690" y="3230" font-size="10" style="fill:blue">xs:sequence</text><path d="M660 3240 C680 3240 660 3240 680 3240" style="fill:transparent;stroke:black" /><rect x="900" y="3220" width="200" height="40" style="fill:white;stroke:black;stroke-width:1" /><text x="910" y="3230" font-size="10" style="fill:blue">xs:element</text><path d="M880 3240 C900 3240 880 3240 900 3240" style="fill:transparent;stroke:black" /><text x="910" y="3240" font-size="8" style="fill:black">ref: coordenadas</text><rect x="240" y="3420" width="200" height="40" style="fill:white;stroke:black;stroke-width:1" /><text x="250" y="3430" font-size="10" style="fill:blue">xs:element</text><path d="M220 40 C240 40 220 3440 240 3440" style="fill:transparent;stroke:black" /><text x="250" y="3440" font-size="8" style="fill:black">name: coordenadas</text><rect x="460" y="3420" width="200" height="40" style="fill:white;stroke:black;stroke-width:1" /><text x="470" y="3430" font-size="10" style="fill:blue">xs:complexType</text><path d="M440 3440 C460 3440 440 3440 460 3440" style="fill:transparent;stroke:black" /><rect x="680" y="3420" width="200" height="40" style="fill:white;stroke:black;stroke-width:1" /><text x="690" y="3430" font-size="10" style="fill:blue">xs:all</text><path d="M660 3440 C680 3440 660 3440 680 3440" style="fill:transparent;stroke:black" /><rect x="900" y="3420" width="200" height="40" style="fill:white;stroke:black;stroke-width:1" /><text x="910" y="3430" font-size="10" style="fill:blue">xs:element</text><path d="M880 3440 C900 3440 880 3440 900 3440" style="fill:transparent;stroke:black" /><text x="910" y="3440" font-size="8" style="fill:black">ref: longitud</text><rect x="900" y="3470" width="200" height="40" style="fill:white;stroke:black;stroke-width:1" /><text x="910" y="3480" font-size="10" style="fill:blue">xs:element</text><path d="M880 3440 C900 3440 880 3490 900 3490" style="fill:transparent;stroke:black" /><text x="910" y="3490" font-size="8" style="fill:black">ref: latitud</text><rect x="900" y="3520" width="200" height="40" style="fill:white;stroke:black;stroke-width:1" /><text x="910" y="3530" font-size="10" style="fill:blue">xs:element</text><path d="M880 3440 C900 3440 880 3540 900 3540" style="fill:transparent;stroke:black" /><text x="910" y="3540" font-size="8" style="fill:black">ref: altitud</text><rect x="240" y="3720" width="200" height="40" style="fill:white;stroke:black;stroke-width:1" /><text x="250" y="3730" font-size="10" style="fill:blue">xs:element</text><path d="M220 40 C240 40 220 3740 240 3740" style="fill:transparent;stroke:black" /><text x="250" y="3740" font-size="8" style="fill:black">name: tramos</text><rect x="460" y="3720" width="200" height="40" style="fill:white;stroke:black;stroke-width:1" /><text x="470" y="3730" font-size="10" style="fill:blue">xs:complexType</text><path d="M440 3740 C460 3740 440 3740 460 3740" style="fill:transparent;stroke:black" /><rect x="680" y="3720" width="200" height="40" style="fill:white;stroke:black;stroke-width:1" /><text x="690" y="3730" font-size="10" style="fill:blue">xs:sequence</text><path d="M660 3740 C680 3740 660 3740 680 3740" style="fill:transparent;stroke:black" /><rect x="900" y="3720" width="200" height="40" style="fill:white;stroke:black;stroke-width:1" /><text x="910" y="3730" font-size="10" style="fill:blue">xs:element</text><path d="M880 3740 C900 3740 880 3740 900 3740" style="fill:transparent;stroke:black" /><text x="910" y="3740" font-size="8" style="fill:black">minOccurs: 1</text><text x="910" y="3750" font-size="8" style="fill:black">maxOccurs: unbounded</text><text x="910" y="3760" font-size="8" style="fill:black">ref: tramo</text><rect x="240" y="3920" width="200" height="40" style="fill:white;stroke:black;stroke-width:1" /><text x="250" y="3930" font-size="10" style="fill:blue">xs:element</text><path d="M220 40 C240 40 220 3940 240 3940" style="fill:transparent;stroke:black" /><text x="250" y="3940" font-size="8" style="fill:black">name: tramo</text><rect x="460" y="3920" width="200" height="40" style="fill:white;stroke:black;stroke-width:1" /><text x="470" y="3930" font-size="10" style="fill:blue">xs:complexType</text><path d="M440 3940 C460 3940 440 3940 460 3940" style="fill:transparent;stroke:black" /><rect x="680" y="3920" width="200" height="40" style="fill:white;stroke:black;stroke-width:1" /><text x="690" y="3930" font-size="10" style="fill:blue">xs:all</text><path d="M660 3940 C680 3940 660 3940 680 3940" style="fill:transparent;stroke:black" /><rect x="900" y="3920" width="200" height="40" style="fill:white;stroke:black;stroke-width:1" /><text x="910" y="3930" font-size="10" style="fill:blue">xs:element</text><path d="M880 3940 C900 3940 880 3940 900 3940" style="fill:transparent;stroke:black" /><text x="910" y="3940" font-size="8" style="fill:black">ref: distancia</text><rect x="900" y="3970" width="200" height="40" style="fill:white;stroke:black;stroke-width:1" /><text x="910" y="3980" font-size="10" style="fill:blue">xs:element</text><path d="M880 3940 C900 3940 880 3990 900 3990" style="fill:transparent;stroke:black" /><text x="910" y="3990" font-size="8" style="fill:black">ref: coordenadas</text><rect x="680" y="4070" width="200" height="40" style="fill:white;stroke:black;stroke-width:1" /><text x="690" y="4080" font-size="10" style="fill:blue">xs:attribute</text><path d="M660 3940 C680 3940 660 4090 680 4090" style="fill:transparent;stroke:black" /><text x="690" y="4090" font-size="8" style="fill:black">name: sector</text><text x="690" y="4100" font-size="8" style="fill:black">type: xs:string</text><text x="690" y="4110" font-size="8" style="fill:black">use: required</text><rect x="240" y="4220" width="200" height="40" style="fill:white;stroke:black;stroke-width:1" /><text x="250" y="4230" font-size="10" style="fill:blue">xs:simpleType</text><path d="M220 40 C240 40 220 4240 240 4240" style="fill:transparent;stroke:black" /><text x="250" y="4240" font-size="8" style="fill:black">name: tipoDistancia</text><rect x="460" y="4220" width="200" height="40" style="fill:white;stroke:black;stroke-width:1" /><text x="470" y="4230" font-size="10" style="fill:blue">xs:restriction</text><path d="M440 4240 C460 4240 440 4240 460 4240" style="fill:transparent;stroke:black" /><text x="470" y="4240" font-size="8" style="fill:black">base: xs:decimal</text><rect x="680" y="4220" width="200" height="40" style="fill:white;stroke:black;stroke-width:1" /><text x="690" y="4230" font-size="10" style="fill:blue">xs:minExclusive</text><path d="M660 4240 C680 4240 660 4240 680 4240" style="fill:transparent;stroke:black" /><text x="690" y="4240" font-size="8" style="fill:black">value: 0</text><rect x="680" y="4270" width="200" height="40" style="fill:white;stroke:black;stroke-width:1" /><text x="690" y="4280" font-size="10" style="fill:blue">xs:maxInclusive</text><path d="M660 4240 C680 4240 660 4290 680 4290" style="fill:transparent;stroke:black" /><text x="690" y="4290" font-size="8" style="fill:black">value: 500</text><rect x="240" y="4420" width="200" height="40" style="fill:white;stroke:black;stroke-width:1" /><text x="250" y="4430" font-size="10" style="fill:blue">xs:simpleType</text><path d="M220 40 C240 40 220 4440 240 4440" style="fill:transparent;stroke:black" /><text x="250" y="4440" font-size="8" style="fill:black">name: tipoPuesto</text><rect x="460" y="4420" width="200" height="40" style="fill:white;stroke:black;stroke-width:1" /><text x="470" y="4430" font-size="10" style="fill:blue">xs:restriction</text><path d="M440 4440 C460 4440 440 4440 460 4440" style="fill:transparent;stroke:black" /><text x="470" y="4440" font-size="8" style="fill:black">base: xs:positiveInteger</text><rect x="680" y="4420" width="200" height="40" style="fill:white;stroke:black;stroke-width:1" /><text x="690" y="4430" font-size="10" style="fill:blue">xs:minInclusive</text><path d="M660 4440 C680 4440 660 4440 680 4440" style="fill:transparent;stroke:black" /><text x="690" y="4440" font-size="8" style="fill:black">value: 1</text><rect x="680" y="4470" width="200" height="40" style="fill:white;stroke:black;stroke-width:1" /><text x="690" y="4480" font-size="10" style="fill:blue">xs:maxInclusive</text><path d="M660 4440 C680 4440 660 4490 680 4490" style="fill:transparent;stroke:black" /><text x="690" y="4490" font-size="8" style="fill:black">value: 3</text><rect x="240" y="4620" width="200" height="40" style="fill:white;stroke:black;stroke-width:1" /><text x="250" y="4630" font-size="10" style="fill:blue">xs:element</text><path d="M220 40 C240 40 220 4640 240 4640" style="fill:transparent;stroke:black" /><text x="250" y="4640" font-size="8" style="fill:black">name: distancia</text><rect x="460" y="4620" width="200" height="40" style="fill:white;stroke:black;stroke-width:1" /><text x="470" y="4630" font-size="10" style="fill:blue">xs:complexType</text><path d="M440 4640 C460 4640 440 4640 460 4640" style="fill:transparent;stroke:black" /><rect x="680" y="4620" width="200" height="40" style="fill:white;stroke:black;stroke-width:1" /><text x="690" y="4630" font-size="10" style="fill:blue">xs:simpleContent</text><path d="M660 4640 C680 4640 660 4640 680 4640" style="fill:transparent;stroke:black" /><rect x="900" y="4620" width="200" height="40" style="fill:white;stroke:black;stroke-width:1" /><text x="910" y="4630" font-size="10" style="fill:blue">xs:extension</text><path d="M880 4640 C900 4640 880 4640 900 4640" style="fill:transparent;stroke:black" /><text x="910" y="4640" font-size="8" style="fill:black">base: tipoDistancia</text><rect x="1120" y="4620" width="200" height="40" style="fill:white;stroke:black;stroke-width:1" /><text x="1130" y="4630" font-size="10" style="fill:blue">xs:attribute</text><path d="M1100 4640 C1120 4640 1100 4640 1120 4640" style="fill:transparent;stroke:black" /><text x="1130" y="4640" font-size="8" style="fill:black">name: unidades</text><text x="1130" y="4650" font-size="8" style="fill:black">type: xs:string</text><text x="1130" y="4660" font-size="8" style="fill:black">use: required</text><rect x="240" y="4870" width="200" height="40" style="fill:white;stroke:black;stroke-width:1" /><text x="250" y="4880" font-size="10" style="fill:blue">xs:simpleType</text><path d="M220 40 C240 40 220 4890 240 4890" style="fill:transparent;stroke:black" /><text x="250" y="4890" font-size="8" style="fill:black">name: tipoLongitud</text><rect x="460" y="4870" width="200" height="40" style="fill:white;stroke:black;stroke-width:1" /><text x="470" y="4880" font-size="10" style="fill:blue">xs:restriction</text><path d="M440 4890 C460 4890 440 4890 460 4890" style="fill:transparent;stroke:black" /><text x="470" y="4890" font-size="8" style="fill:black">base: xs:decimal</text><rect x="680" y="4870" width="200" height="40" style="fill:white;stroke:black;stroke-width:1" /><text x="690" y="4880" font-size="10" style="fill:blue">xs:minInclusive</text><path d="M660 4890 C680 4890 660 4890 680 4890" style="fill:transparent;stroke:black" /><text x="690" y="4890" font-size="8" style="fill:black">value: -180</text><rect x="680" y="4920" width="200" height="40" style="fill:white;stroke:black;stroke-width:1" /><text x="690" y="4930" font-size="10" style="fill:blue">xs:maxInclusive</text><path d="M660 4890 C680 4890 660 4940 680 4940" style="fill:transparent;stroke:black" /><text x="690" y="4940" font-size="8" style="fill:black">value: 180</text><rect x="240" y="5070" width="200" height="40" style="fill:white;stroke:black;stroke-width:1" /><text x="250" y="5080" font-size="10" style="fill:blue">xs:element</text><path d="M220 40 C240 40 220 5090 240 5090" style="fill:transparent;stroke:black" /><text x="250" y="5090" font-size="8" style="fill:black">name: longitud</text><rect x="460" y="5070" width="200" height="40" style="fill:white;stroke:black;stroke-width:1" /><text x="470" y="5080" font-size="10" style="fill:blue">xs:complexType</text><path d="M440 5090 C460 5090 440 5090 460 5090" style="fill:transparent;stroke:black" /><rect x="680" y="5070" width="200" height="40" style="fill:white;stroke:black;stroke-width:1" /><text x="690" y="5080" font-size="10" style="fill:blue">xs:simpleContent</text><path d="M660 5090 C680 5090 660 5090 680 5090" style="fill:transparent;stroke:black" /><rect x="900" y="5070" width="200" height="40" style="fill:white;stroke:black;stroke-width:1" /><text x="910" y="5080" font-size="10" style="fill:blue">xs:extension</text><path d="M880 5090 C900 5090 880 5090 900 5090" style="fill:transparent;stroke:black" /><text x="910" y="5090" font-size="8" style="fill:black">base: tipoLongitud</text><rect x="1120" y="5070" width="200" height="40" style="fill:white;stroke:black;stroke-width:1" /><text x="1130" y="5080" font-size="10" style="fill:blue">xs:attribute</text><path d="M1100 5090 C1120 5090 1100 5090 1120 5090" style="fill:transparent;stroke:black" /><text x="1130" y="5090" font-size="8" style="fill:black">name: unidades</text><text x="1130" y="5100" font-size="8" style="fill:black">type: xs:string</text><text x="1130" y="5110" font-size="8" style="fill:black">use: required</text><rect x="240" y="5320" width="200" height="40" style="fill:white;stroke:black;stroke-width:1" /><text x="250" y="5330" font-size="10" style="fill:blue">xs:simpleType</text><path d="M220 40 C240 40 220 5340 240 5340" style="fill:transparent;stroke:black" /><text x="250" y="5340" font-size="8" style="fill:black">name: tipoLatitud</text><rect x="460" y="5320" width="200" height="40" style="fill:white;stroke:black;stroke-width:1" /><text x="470" y="5330" font-size="10" style="fill:blue">xs:restriction</text><path d="M440 5340 C460 5340 440 5340 460 5340" style="fill:transparent;stroke:black" /><text x="470" y="5340" font-size="8" style="fill:black">base: xs:decimal</text><rect x="680" y="5320" width="200" height="40" style="fill:white;stroke:black;stroke-width:1" /><text x="690" y="5330" font-size="10" style="fill:blue">xs:minInclusive</text><path d="M660 5340 C680 5340 660 5340 680 5340" style="fill:transparent;stroke:black" /><text x="690" y="5340" font-size="8" style="fill:black">value: -90</text><rect x="680" y="5370" width="200" height="40" style="fill:white;stroke:black;stroke-width:1" /><text x="690" y="5380" font-size="10" style="fill:blue">xs:maxInclusive</text><path d="M660 5340 C680 5340 660 5390 680 5390" style="fill:transparent;stroke:black" /><text x="690" y="5390" font-size="8" style="fill:black">value: 90</text><rect x="240" y="5520" width="200" height="40" style="fill:white;stroke:black;stroke-width:1" /><text x="250" y="5530" font-size="10" style="fill:blue">xs:element</text><path d="M220 40 C240 40 220 5540 240 5540" style="fill:transparent;stroke:black" /><text x="250" y="5540" font-size="8" style="fill:black">name: latitud</text><rect x="460" y="5520" width="200" height="40" style="fill:white;stroke:black;stroke-width:1" /><text x="470" y="5530" font-size="10" style="fill:blue">xs:complexType</text><path d="M440 5540 C460 5540 440 5540 460 5540" style="fill:transparent;stroke:black" /><rect x="680" y="5520" width="200" height="40" style="fill:white;stroke:black;stroke-width:1" /><text x="690" y="5530" font-size="10" style="fill:blue">xs:simpleContent</text><path d="M660 5540 C680 5540 660 5540 680 5540" style="fill:transparent;stroke:black" /><rect x="900" y="5520" width="200" height="40" style="fill:white;stroke:black;stroke-width:1" /><text x="910" y="5530" font-size="10" style="fill:blue">xs:extension</text><path d="M880 5540 C900 5540 880 5540 900 5540" style="fill:transparent;stroke:black" /><text x="910" y="5540" font-size="8" style="fill:black">base: tipoLatitud</text><rect x="1120" y="5520" width="200" height="40" style="fill:white;stroke:black;stroke-width:1" /><text x="1130" y="5530" font-size="10" style="fill:blue">xs:attribute</text><path d="M1100 5540 C1120 5540 1100 5540 1120 5540" style="fill:transparent;stroke:black" /><text x="1130" y="5540" font-size="8" style="fill:black">name: unidades</text><text x="1130" y="5550" font-size="8" style="fill:black">type: xs:string</text><text x="1130" y="5560" font-size="8" style="fill:black">use: required</text><rect x="240" y="5770" width="200" height="40" style="fill:white;stroke:black;stroke-width:1" /><text x="250" y="5780" font-size="10" style="fill:blue">xs:simpleType</text><path d="M220 40 C240 40 220 5790 240 5790" style="fill:transparent;stroke:black" /><text x="250" y="5790" font-size="8" style="fill:black">name: tipoAltitud</text><rect x="460" y="5770" width="200" height="40" style="fill:white;stroke:black;stroke-width:1" /><text x="470" y="5780" font-size="10" style="fill:blue">xs:restriction</text><path d="M440 5790 C460 5790 440 5790 460 5790" style="fill:transparent;stroke:black" /><text x="470" y="5790" font-size="8" style="fill:black">base: xs:decimal</text><rect x="680" y="5770" width="200" height="40" style="fill:white;stroke:black;stroke-width:1" /><text x="690" y="5780" font-size="10" style="fill:blue">xs:minExclusive</text><path d="M660 5790 C680 5790 660 5790 680 5790" style="fill:transparent;stroke:black" /><text x="690" y="5790" font-size="8" style="fill:black">value: 0</text><rect x="680" y="5820" width="200" height="40" style="fill:white;stroke:black;stroke-width:1" /><text x="690" y="5830" font-size="10" style="fill:blue">xs:maxInclusive</text><path d="M660 5790 C680 5790 660 5840 680 5840" style="fill:transparent;stroke:black" /><text x="690" y="5840" font-size="8" style="fill:black">value: 1000</text><rect x="240" y="5970" width="200" height="40" style="fill:white;stroke:black;stroke-width:1" /><text x="250" y="5980" font-size="10" style="fill:blue">xs:element</text><path d="M220 40 C240 40 220 5990 240 5990" style="fill:transparent;stroke:black" /><text x="250" y="5990" font-size="8" style="fill:black">name: altitud</text><rect x="460" y="5970" width="200" height="40" style="fill:white;stroke:black;stroke-width:1" /><text x="470" y="5980" font-size="10" style="fill:blue">xs:complexType</text><path d="M440 5990 C460 5990 440 5990 460 5990" style="fill:transparent;stroke:black" /><rect x="680" y="5970" width="200" height="40" style="fill:white;stroke:black;stroke-width:1" /><text x="690" y="5980" font-size="10" style="fill:blue">xs:simpleContent</text><path d="M660 5990 C680 5990 660 5990 680 5990" style="fill:transparent;stroke:black" /><rect x="900" y="5970" width="200" height="40" style="fill:white;stroke:black;stroke-width:1" /><text x="910" y="5980" font-size="10" style="fill:blue">xs:extension</text><path d="M880 5990 C900 5990 880 5990 900 5990" style="fill:transparent;stroke:black" /><text x="910" y="5990" font-size="8" style="fill:black">base: tipoAltitud</text><rect x="1120" y="5970" width="200" height="40" style="fill:white;stroke:black;stroke-width:1" /><text x="1130" y="5980" font-size="10" style="fill:blue">xs:attribute</text><path d="M1100 5990 C1120 5990 1100 5990 1120 5990" style="fill:transparent;stroke:black" /><text x="1130" y="5990" font-size="8" style="fill:black">name: unidades</text><text x="1130" y="6000" font-size="8" style="fill:black">type: xs:string</text><text x="1130" y="6010" font-size="8" style="fill:black">use: required</text><rect x="240" y="6220" width="200" height="40" style="fill:white;stroke:black;stroke-width:1" /><text x="250" y="6230" font-size="10" style="fill:blue">xs:element</text><path d="M220 40 C240 40 220 6240 240 6240" style="fill:transparent;stroke:black" /><text x="250" y="6240" font-size="8" style="fill:black">name: vencedor</text><rect x="460" y="6220" width="200" height="40" style="fill:white;stroke:black;stroke-width:1" /><text x="470" y="6230" font-size="10" style="fill:blue">xs:complexType</text><path d="M440 6240 C460 6240 440 6240 460 6240" style="fill:transparent;stroke:black" /><rect x="680" y="6220" width="200" height="40" style="fill:white;stroke:black;stroke-width:1" /><text x="690" y="6230" font-size="10" style="fill:blue">xs:sequence</text><path d="M660 6240 C680 6240 660 6240 680 6240" style="fill:transparent;stroke:black" /><rect x="900" y="6220" width="200" height="40" style="fill:white;stroke:black;stroke-width:1" /><text x="910" y="6230" font-size="10" style="fill:blue">xs:element</text><path d="M880 6240 C900 6240 880 6240 900 6240" style="fill:transparent;stroke:black" /><text x="910" y="6240" font-size="8" style="fill:black">ref: tiempo-victoria</text><rect x="680" y="6320" width="200" height="40" style="fill:white;stroke:black;stroke-width:1" /><text x="690" y="6330" font-size="10" style="fill:blue">xs:attribute</text><path d="M660 6240 C680 6240 660 6340 680 6340" style="fill:transparent;stroke:black" /><text x="690" y="6340" font-size="8" style="fill:black">name: nombre</text><text x="690" y="6350" font-size="8" style="fill:black">type: xs:string</text><text x="690" y="6360" font-size="8" style="fill:black">use: required</text><rect x="240" y="6470" width="200" height="40" style="fill:white;stroke:black;stroke-width:1" /><text x="250" y="6480" font-size="10" style="fill:blue">xs:element</text><path d="M220 40 C240 40 220 6490 240 6490" style="fill:transparent;stroke:black" /><text x="250" y="6490" font-size="8" style="fill:black">name: clasificados</text><rect x="460" y="6470" width="200" height="40" style="fill:white;stroke:black;stroke-width:1" /><text x="470" y="6480" font-size="10" style="fill:blue">xs:complexType</text><path d="M440 6490 C460 6490 440 6490 460 6490" style="fill:transparent;stroke:black" /><rect x="680" y="6470" width="200" height="40" style="fill:white;stroke:black;stroke-width:1" /><text x="690" y="6480" font-size="10" style="fill:blue">xs:sequence</text><path d="M660 6490 C680 6490 660 6490 680 6490" style="fill:transparent;stroke:black" /><rect x="900" y="6470" width="200" height="40" style="fill:white;stroke:black;stroke-width:1" /><text x="910" y="6480" font-size="10" style="fill:blue">xs:element</text><path d="M880 6490 C900 6490 880 6490 900 6490" style="fill:transparent;stroke:black" /><text x="910" y="6490" font-size="8" style="fill:black">minOccurs: 3</text><text x="910" y="6500" font-size="8" style="fill:black">maxOccurs: 3</text><text x="910" y="6510" font-size="8" style="fill:black">ref: clasificado</text><rect x="240" y="6670" width="200" height="40" style="fill:white;stroke:black;stroke-width:1" /><text x="250" y="6680" font-size="10" style="fill:blue">xs:element</text><path d="M220 40 C240 40 220 6690 240 6690" style="fill:transparent;stroke:black" /><text x="250" y="6690" font-size="8" style="fill:black">name: clasificado</text><rect x="460" y="6670" width="200" height="40" style="fill:white;stroke:black;stroke-width:1" /><text x="470" y="6680" font-size="10" style="fill:blue">xs:complexType</text><path d="M440 6690 C460 6690 440 6690 460 6690" style="fill:transparent;stroke:black" /><rect x="680" y="6670" width="200" height="40" style="fill:white;stroke:black;stroke-width:1" /><text x="690" y="6680" font-size="10" style="fill:blue">xs:simpleContent</text><path d="M660 6690 C680 6690 660 6690 680 6690" style="fill:transparent;stroke:black" /><rect x="900" y="6670" width="200" height="40" style="fill:white;stroke:black;stroke-width:1" /><text x="910" y="6680" font-size="10" style="fill:blue">xs:extension</text><path d="M880 6690 C900 6690 880 6690 900 6690" style="fill:transparent;stroke:black" /><text x="910" y="6690" font-size="8" style="fill:black">base: xs:string</text><rect x="1120" y="6670" width="200" height="40" style="fill:white;stroke:black;stroke-width:1" /><text x="1130" y="6680" font-size="10" style="fill:blue">xs:attribute</text><path d="M1100 6690 C1120 6690 1100 6690 1120 6690" style="fill:transparent;stroke:black" /><text x="1130" y="6690" font-size="8" style="fill:black">name: puesto</text><text x="1130" y="6700" font-size="8" style="fill:black">type: tipoPuesto</text><text x="1130" y="6710" font-size="8" style="fill:black">use: required</text><rect x="1120" y="6720" width="200" height="40" style="fill:white;stroke:black;stroke-width:1" /><text x="1130" y="6730" font-size="10" style="fill:blue">xs:attribute</text><path d="M1100 6690 C1120 6690 1100 6740 1120 6740" style="fill:transparent;stroke:black" /><text x="1130" y="6740" font-size="8" style="fill:black">name: puntos</text><text x="1130" y="6750" font-size="8" style="fill:black">type: xs:positiveInteger</text><text x="1130" y="6760" font-size="8" style="fill:black">use: required</text></svg>